# xmcd
# 
# Track frame offsets:
#     150
#     15557
#     31331
#     43256
#     57435
#     74425
#     95119
#     117619
#     134953
#     155425
#     173985
#     189892
#     199901
#     217786
#     242253
#     254830
#     271607
# 
# Disc length: 4055
# 
# Revision: 1
# Processed by: cddbd v1.5.2PL0 Copyright (c) Steve Scherf et al.
# Submitted via: fre:ac v1.0.17
# 
DISCID=fe0fd511
DTITLE=Tak Matsumoto - The Hit Parade
DYEAR=2003
DGENRE=Rock
TTITLE0=勝手にしやがれ (Featuring 稲葉浩志)
TTITLE1=異邦人 (Featuring ZARD)
TTITLE2=涙の太陽 (Featuring 愛内里菜)
TTITLE3=その気にさせないで (Featuring 三枝夕夏・北原愛子・高岡亜衣)
TTITLE4=イミテイション・ゴールド (Featuring 倉木麻衣)
TTITLE5=港のヨーコ・ヨコハマ・ヨコスカ
TTITLE6=雨の街を (Featuring 松田明子)
TTITLE7=Paper Doll (Featuring Fayray)
TTITLE8=「いちご白書」をもう一度 (Featuring 菅崎茜)
TTITLE9=Foggy Night (Featuring 滴草由実)
TTITLE10=少女A (Featuring 上原あずみ)
TTITLE11=ビュン・ビュン (Featuring 川島だりあ)
TTITLE12=パープルタウン (You Oughta Know By Now) (Featuring 竹井詩織里)
TTITLE13=時に愛は (Featuring 宇徳敬子)
TTITLE14=Spinning Toe-Hold
TTITLE15=一人 -I Stand Alone- (Featuring Jeffrey Qwest)
TTITLE16=私は風 (Featuring 中村由利)
EXTD=YEAR: 2003
EXTT0=
EXTT1=
EXTT2=
EXTT3=
EXTT4=
EXTT5=
EXTT6=
EXTT7=
EXTT8=
EXTT9=
EXTT10=
EXTT11=
EXTT12=
EXTT13=
EXTT14=
EXTT15=
EXTT16=
PLAYORDER=
